# xmcd
#
# Track frame offsets:
#	150
#	17731
#	33454
#	54812
#	72805
#	88288
#	101659
#	118542
#	136923
#	152932
#	170248
#	186787
#	204086
#	223088
#
# Disc length: 3187
#
# Revision: 1
# Processed by: cddbd v1.5.1PL0 Copyright (c) Steve Scherf et al.
# Submitted via: CDex 1.50beta9
# Normalized: r0:TDELIM( - )
#
DISCID=c30c710e
DTITLE=Various Artist - Hitz - Country - Vol 1
DYEAR=2002
DGENRE=Country
TTITLE0=Keith Urban - Somebody Like You
TTITLE1=Brooks and Dunn - Every River
TTITLE2=Kenny Chesney - A Lot of Things Different
TTITLE3=Brad Paisley - I Wish You'd Stay
TTITLE4=Terri Clark - I Just Wanna Be Mad
TTITLE5=Trick Pony - On A Mission
TTITLE6=Gary Allan - Man To Man
TTITLE7=Andy Griggs and Martina McBride - Practice Life
TTITLE8=Aaron Lines - You Can't Hide Beautiful
TTITLE9=Neal McCoy - The Luckiest Man In The World
TTITLE10=Jennifer Hanson - Beautiful Goodbye
TTITLE11=Kellie Coffey - At The End of the Day
TTITLE12=Steve Azar - Waitin' On Joe
TTITLE13=Lonestar - Unusually Unusual
EXTD=YEAR: 2002
EXTT0=
EXTT1=
EXTT2=
EXTT3=
EXTT4=
EXTT5=
EXTT6=
EXTT7=
EXTT8=
EXTT9=
EXTT10=
EXTT11=
EXTT12=
EXTT13=
PLAYORDER=
